<?xml version="1.0" encoding="UTF-8"?>
<svg width="512" height="512" viewBox="0 0 48 48" xmlns="http://www.w3.org/2000/svg">
  <rect width="512" height="512" fill="#1E1E1E"/>
  <rect x="5.399999999999999" y="5.399999999999999" width="6" height="6" fill="#2A2A2A" rx="1.2"/><rect x="13.2" y="5.399999999999999" width="6" height="6" fill="#2A2A2A" rx="1.2"/><rect x="21" y="5.399999999999999" width="6" height="6" fill="#3F3F3F" rx="1.2"/><rect x="28.799999999999997" y="5.399999999999999" width="6" height="6" fill="#5A5A5A" rx="1.2"/><rect x="36.599999999999994" y="5.399999999999999" width="6" height="6" fill="#5A5A5A" rx="1.2"/><rect x="5.399999999999999" y="13.2" width="6" height="6" fill="#2A2A2A" rx="1.2"/><rect x="13.2" y="13.2" width="6" height="6" fill="#3F3F3F" rx="1.2"/><rect x="21" y="13.2" width="6" height="6" fill="#5A5A5A" rx="1.2"/><rect x="28.799999999999997" y="13.2" width="6" height="6" fill="#FF6B35" rx="1.2"/><rect x="36.599999999999994" y="13.2" width="6" height="6" fill="#FF6B35" rx="1.2"/><rect x="5.399999999999999" y="21" width="6" height="6" fill="#3F3F3F" rx="1.2"/><rect x="13.2" y="21" width="6" height="6" fill="#5A5A5A" rx="1.2"/><rect x="21" y="21" width="6" height="6" fill="#FF6B35" rx="1.2"/><rect x="28.799999999999997" y="21" width="6" height="6" fill="#F85542" rx="1.2"/><rect x="36.599999999999994" y="21" width="6" height="6" fill="#F85542" rx="1.2"/><rect x="5.399999999999999" y="28.799999999999997" width="6" height="6" fill="#3F3F3F" rx="1.2"/><rect x="13.2" y="28.799999999999997" width="6" height="6" fill="#5A5A5A" rx="1.2"/><rect x="21" y="28.799999999999997" width="6" height="6" fill="#FF6B35" rx="1.2"/><rect x="28.799999999999997" y="28.799999999999997" width="6" height="6" fill="#F85542" rx="1.2"/><rect x="36.599999999999994" y="28.799999999999997" width="6" height="6" fill="#D72638" rx="1.2"/><rect x="5.399999999999999" y="36.599999999999994" width="6" height="6" fill="#5A5A5A" rx="1.2"/><rect x="13.2" y="36.599999999999994" width="6" height="6" fill="#5A5A5A" rx="1.2"/><rect x="21" y="36.599999999999994" width="6" height="6" fill="#FF6B35" rx="1.2"/><rect x="28.799999999999997" y="36.599999999999994" width="6" height="6" fill="#F85542" rx="1.2"/><rect x="36.599999999999994" y="36.599999999999994" width="6" height="6" fill="#D72638" rx="1.2"/>
  
</svg>